<svg width="343" height="295" viewBox="0 0 343 295" fill="none" xmlns="http://www.w3.org/2000/svg">
<path d="M238.311 29.5866C245.44 29.5866 251.22 22.9634 251.22 14.7933C251.22 6.62318 245.44 0 238.311 0C231.182 0 225.402 6.62318 225.402 14.7933C225.402 22.9634 231.182 29.5866 238.311 29.5866Z" fill="#FF6584"/>
<path d="M272.915 282.461L268.266 282.571L265.674 261.616L272.535 261.453L272.915 282.461Z" fill="#FFB6B6"/>
<path d="M258.243 291.428C258.267 292.743 259.216 293.786 260.364 293.761L269.607 293.541L271.129 289.729L271.82 293.486L275.307 293.406L274.084 279.964L272.869 279.912L267.911 279.686L266.311 279.617L266.38 283.43L259.104 289.447C258.55 289.905 258.228 290.646 258.243 291.428V291.428Z" fill="#2F2E41"/>
<path d="M304.203 282.461L299.553 282.571L296.962 261.616L303.823 261.453L304.203 282.461Z" fill="#FFB6B6"/>
<path d="M289.53 291.428C289.555 292.743 290.504 293.786 291.652 293.761L300.895 293.541L302.417 289.729L303.107 293.486L306.595 293.406L305.372 279.964L304.157 279.912L299.199 279.686L297.599 279.617L297.668 283.43L290.391 289.447C289.838 289.905 289.516 290.646 289.53 291.428V291.428Z" fill="#2F2E41"/>
<path d="M277.601 121.352L303.2 120.537L301.778 122.982L305.017 126.649C305.017 126.649 316.711 144.984 313.155 161.689C309.6 178.394 311.601 277.152 311.601 277.152L290.756 274.549L293.067 174.93L276.001 212.415L280.963 273.183L263.201 273.123L257.513 207.525L277.601 121.352V121.352Z" fill="#2F2E41"/>
<path d="M170.515 42.5388C170.611 42.8109 170.944 42.8109 171.04 42.5388C171.712 40.6406 172.669 38.5149 173.709 36.8903C173.876 36.6302 173.646 36.2827 173.382 36.3924L171.151 37.3171V21.495H170.405V37.3172L168.173 36.3923C167.909 36.2826 167.679 36.6301 167.846 36.8902C168.886 38.5148 169.843 40.6406 170.515 42.5388H170.515Z" fill="#3F3D56"/>
<path d="M185.141 58.8298C185.069 59.1115 185.33 59.3486 185.553 59.2041C187.109 58.1966 189.012 57.2136 190.708 56.683C190.98 56.5981 190.989 56.1622 190.722 56.0595L188.473 55.1941L197.06 42.8039L196.475 42.2718L187.889 54.662L186.643 52.3476C186.495 52.073 186.127 52.1815 186.116 52.5039C186.05 54.5176 185.645 56.8642 185.141 58.8298V58.8298Z" fill="#3F3D56"/>
<path d="M239.676 87.7387L253.463 85.9175L255.47 94.7981L240.833 96.1292C240.522 96.4989 240.159 96.8236 239.747 97.0861C237.504 98.514 234.676 97.588 233.43 95.0179C232.184 92.4478 232.992 89.2068 235.235 87.7789C236.665 86.8684 238.332 86.9187 239.676 87.7387V87.7387Z" fill="#FFB6B6"/>
<path d="M305.692 67.2552L300.296 57.8713C299.315 58.7638 298.454 59.6613 297.805 60.4552L296.686 61.3378L293.071 65.0411L282.839 75.5098L279.435 78.9961L275.635 79.7604L267.249 81.4518L254.548 85.3682L245.196 86.0623C245.192 86.2793 245.192 86.6048 245.192 87.0091C245.187 89.1147 245.23 93.3751 245.592 95.6977C245.717 96.5064 245.88 97.0784 246.095 97.251C246.164 97.3052 253.326 94.7422 253.688 94.7373C256.601 94.7323 261.47 95.6484 271.294 94.1839C277.129 93.3061 282.266 92.5073 284.426 92.167L284.474 92.1572L286.036 91.2893L303.183 81.7723L308.36 78.8975C307.93 74.923 307.039 71.0028 305.692 67.2552V67.2552Z" fill="#5EB0FC"/>
<path d="M9.76354 13.7779C4.37129 13.7779 0 18.7873 0 24.9666V214.473H0.860603V91.5314C0.860603 49.1339 30.8526 14.7641 67.8499 14.7641L238.974 14.5848L238.817 13.7779H9.76354Z" fill="#2C85EF"/>
<path d="M54.9521 45.2656C56.9618 45.2656 58.591 43.357 58.591 41.0026C58.591 38.6482 56.9618 36.7397 54.9521 36.7397C52.9424 36.7397 51.3132 38.6482 51.3132 41.0026C51.3132 43.357 52.9424 45.2656 54.9521 45.2656Z" fill="#3F3D56"/>
<path d="M67.5228 45.2656C69.5325 45.2656 71.1617 43.357 71.1617 41.0026C71.1617 38.6482 69.5325 36.7397 67.5228 36.7397C65.5131 36.7397 63.8839 38.6482 63.8839 41.0026C63.8839 43.357 65.5131 45.2656 67.5228 45.2656Z" fill="#3F3D56"/>
<path d="M80.0935 45.2656C82.1032 45.2656 83.7324 43.357 83.7324 41.0026C83.7324 38.6482 82.1032 36.7397 80.0935 36.7397C78.0838 36.7397 76.4547 38.6482 76.4547 41.0026C76.4547 43.357 78.0838 45.2656 80.0935 45.2656Z" fill="#3F3D56"/>
<path d="M143.511 91.2252C138.119 91.2252 133.748 96.2345 133.748 102.414L133.748 183.437H134.608V168.979C134.608 126.581 164.6 92.2114 201.598 92.2115L263.855 92.0322L263.699 91.2253L143.511 91.2252V91.2252Z" fill="#F2F2F2"/>
<path d="M179.663 141.509C179.188 141.509 178.802 141.951 178.802 142.495V157.781C178.802 158.325 179.188 158.768 179.663 158.768C180.137 158.768 180.523 158.325 180.523 157.781V142.495C180.523 141.951 180.137 141.509 179.663 141.509Z" fill="#3F3D56"/>
<path d="M188.097 156.239C191.059 156.239 193.46 153.545 193.46 150.222C193.46 146.9 191.059 144.206 188.097 144.206C185.135 144.206 182.734 146.9 182.734 150.222C182.734 153.545 185.135 156.239 188.097 156.239Z" fill="#5EB0FC"/>
<path d="M231.09 148.164L202.223 148.164C201.233 148.164 200.427 147.241 200.427 146.106C200.427 144.971 201.233 144.048 202.223 144.048L231.09 144.048C232.08 144.048 232.886 144.971 232.886 146.106C232.886 147.241 232.08 148.164 231.09 148.164Z" fill="#F2F2F2"/>
<path d="M253.617 155.13L202.223 155.13C201.233 155.13 200.427 154.207 200.427 153.072C200.427 151.937 201.233 151.014 202.223 151.014L253.617 151.014C254.608 151.014 255.413 151.937 255.413 153.072C255.413 154.207 254.608 155.13 253.617 155.13Z" fill="#F2F2F2"/>
<path d="M182.321 115.287C184.331 115.287 185.96 113.379 185.96 111.024C185.96 108.67 184.331 106.761 182.321 106.761C180.312 106.761 178.682 108.67 178.682 111.024C178.682 113.379 180.312 115.287 182.321 115.287Z" fill="#F2F2F2"/>
<path d="M194.892 115.287C196.902 115.287 198.531 113.379 198.531 111.024C198.531 108.67 196.902 106.761 194.892 106.761C192.882 106.761 191.253 108.67 191.253 111.024C191.253 113.379 192.882 115.287 194.892 115.287Z" fill="#F2F2F2"/>
<path d="M207.463 115.287C209.472 115.287 211.102 113.379 211.102 111.024C211.102 108.67 209.472 106.761 207.463 106.761C205.453 106.761 203.824 108.67 203.824 111.024C203.824 113.379 205.453 115.287 207.463 115.287Z" fill="#F2F2F2"/>
<path d="M38.8795 83.5354C38.4049 83.5354 38.0189 83.9777 38.0189 84.5216V99.808C38.0189 100.352 38.4049 100.794 38.8795 100.794C39.3542 100.794 39.7401 100.352 39.7401 99.808V84.5216C39.7401 83.9777 39.3542 83.5354 38.8795 83.5354Z" fill="#3F3D56"/>
<path d="M47.3139 98.2652C50.2758 98.2652 52.6769 95.5716 52.6769 92.2489C52.6769 88.9262 50.2758 86.2326 47.3139 86.2326C44.352 86.2326 41.9509 88.9262 41.9509 92.2489C41.9509 95.5716 44.352 98.2652 47.3139 98.2652Z" fill="#5EB0FC"/>
<path d="M90.3065 90.1907H61.4398C60.4495 90.1907 59.6437 89.2673 59.6437 88.1325C59.6437 86.9976 60.4495 86.0743 61.4398 86.0743H90.3065C91.2968 86.0743 92.1026 86.9976 92.1026 88.1325C92.1026 89.2673 91.2968 90.1907 90.3065 90.1907Z" fill="#F2F2F2"/>
<path d="M112.834 97.1569H61.4398C60.4495 97.1569 59.6437 96.2336 59.6437 95.0987C59.6437 93.9638 60.4495 93.0405 61.4398 93.0405H112.834C113.825 93.0405 114.63 93.9638 114.63 95.0987C114.63 96.2336 113.825 97.1569 112.834 97.1569Z" fill="#F2F2F2"/>
<path d="M38.8795 125.943C38.4049 125.943 38.0189 126.385 38.0189 126.929V142.215C38.0189 142.759 38.4049 143.202 38.8795 143.202C39.3542 143.202 39.7401 142.759 39.7401 142.215V126.929C39.7401 126.385 39.3542 125.943 38.8795 125.943Z" fill="#3F3D56"/>
<path d="M47.3139 140.673C50.2758 140.673 52.6769 137.979 52.6769 134.656C52.6769 131.334 50.2758 128.64 47.3139 128.64C44.352 128.64 41.9509 131.334 41.9509 134.656C41.9509 137.979 44.352 140.673 47.3139 140.673Z" fill="#5EB0FC"/>
<path d="M90.3065 132.598H61.4398C60.4495 132.598 59.6437 131.675 59.6437 130.54C59.6437 129.405 60.4495 128.482 61.4398 128.482H90.3065C91.2968 128.482 92.1026 129.405 92.1026 130.54C92.1026 131.675 91.2968 132.598 90.3065 132.598Z" fill="#F2F2F2"/>
<path d="M112.834 139.564H61.4398C60.4495 139.564 59.6437 138.641 59.6437 137.506C59.6437 136.371 60.4495 135.448 61.4398 135.448H112.834C113.825 135.448 114.63 136.371 114.63 137.506C114.63 138.641 113.825 139.564 112.834 139.564Z" fill="#F2F2F2"/>
<path d="M38.8795 168.35C38.4049 168.35 38.0189 168.793 38.0189 169.336V184.623C38.0189 185.167 38.4049 185.609 38.8795 185.609C39.3542 185.609 39.7401 185.167 39.7401 184.623V169.336C39.7401 168.793 39.3542 168.35 38.8795 168.35Z" fill="#3F3D56"/>
<path d="M47.3139 183.08C50.2758 183.08 52.6769 180.386 52.6769 177.064C52.6769 173.741 50.2758 171.047 47.3139 171.047C44.352 171.047 41.9509 173.741 41.9509 177.064C41.9509 180.386 44.352 183.08 47.3139 183.08Z" fill="#5EB0FC"/>
<path d="M90.3065 175.005H61.4398C60.4495 175.005 59.6437 174.082 59.6437 172.947C59.6437 171.812 60.4495 170.889 61.4398 170.889H90.3065C91.2968 170.889 92.1026 171.812 92.1026 172.947C92.1026 174.082 91.2968 175.005 90.3065 175.005Z" fill="#F2F2F2"/>
<path d="M112.834 181.972H61.4398C60.4495 181.972 59.6437 181.048 59.6437 179.913C59.6437 178.779 60.4495 177.855 61.4398 177.855H112.834C113.825 177.855 114.63 178.779 114.63 179.913C114.63 181.048 113.825 181.972 112.834 181.972Z" fill="#F2F2F2"/>
<path d="M310.057 137.145C309.525 141.789 281.937 130.793 278.645 128.762C272.487 124.97 278.93 128.859 278.93 128.859L278.215 105.586L277.468 91.7183C277.468 91.7183 277.051 88.0348 276.178 83.3355C275.98 82.2802 275.769 81.0573 275.635 79.7604C275.257 76.0177 275.545 71.6685 278.759 69.0353L289.969 49.8829L295.489 49.5131L300.296 57.8713L305.692 67.2552C307.039 71.0028 307.93 74.923 308.36 78.8975C308.562 80.7565 308.665 82.6303 308.665 84.5091C308.665 87.8178 308.351 91.1365 307.714 94.4008L304.336 105.254C304.336 105.254 303.911 107.091 305.395 108.119C308.405 110.205 302.312 115.941 306.04 123.046C306.04 123.046 305.692 126.31 307.353 126.596C309.014 126.887 310.281 135.189 310.057 137.145V137.145Z" fill="#5EB0FC"/>
<path d="M256.461 148.302L264.647 135.459L271.702 139.794L262.626 153.02C262.651 153.533 262.614 154.059 262.502 154.584C261.896 157.441 259.384 159.194 256.891 158.5C254.398 157.805 252.868 154.926 253.474 152.069C253.861 150.247 255.024 148.878 256.461 148.302V148.302Z" fill="#FFB6B6"/>
<path d="M291.033 67.2825C289.166 65.743 286.978 64.6541 284.572 64.1708C281.287 63.5142 279.445 68.9302 278.721 74.2125C278.388 76.6607 278.29 79.0815 278.405 80.8486L278.211 82.3943L278.098 90.396L277.831 108.895L269.609 122.845L266.166 132.214L259.132 142.518C259.269 142.67 259.479 142.89 259.737 143.168C261.087 144.598 263.841 147.45 265.577 148.722C266.18 149.161 266.656 149.41 266.912 149.349C266.993 149.329 271.946 143.861 272.191 143.555C273.834 141.506 274.157 138.755 279.125 130.76C283.649 123.484 288.062 116.248 289.655 113.63L289.685 113.583L296.847 86.5135L297.498 84.0597C298.193 77.3397 295.551 71.001 291.033 67.2825V67.2825Z" fill="#5EB0FC"/>
<path d="M286.972 67.6886C286.959 67.6825 286.947 67.6752 286.934 67.6691C286.823 67.6799 286.713 67.6878 286.606 67.6886H286.972Z" fill="#2F2E41"/>
<path d="M290.184 46.4307C297.097 46.4307 302.701 40.0088 302.701 32.0871C302.701 24.1653 297.097 17.7434 290.184 17.7434C283.272 17.7434 277.668 24.1653 277.668 32.0871C277.668 40.0088 283.272 46.4307 290.184 46.4307Z" fill="#FFB6B6"/>
<path d="M273.238 28.1003C272.393 21.1468 274.857 19.0194 278.711 18.3893C286.338 13.8474 288.085 14.9891 290.502 15.482L291.391 15.263C294.118 14.5907 295.107 14.8775 297.532 15.928C302.647 18.1382 306.007 23.7427 306.379 29.9921C306.635 34.3003 305.457 34.9711 307.636 38.4698C309.459 41.3908 308.065 45.4905 305.005 46.2449L302.157 51.1789C301.464 50.1744 300.909 49.1218 300.281 47.8028C300.033 48.9796 300.006 50.3272 300.135 51.6774C297.3 53.2958 294.204 53.9655 290.921 53.9492C290.393 53.1427 289.92 52.2446 289.982 51.2328C289.8 52.2466 289.577 53.2567 289.539 54.2901C287.473 52.766 285.766 53.2138 284.403 55.5563C280.96 52.2865 280.691 44.7943 284.783 42.9175C288.245 41.3298 282.784 30.2149 279.06 29.9883C279.036 29.9868 278.044 34.2842 278.009 34.2034C277.484 32.9991 277.724 32.3389 277.096 31.0199C276.889 32.0121 276.834 33.1233 276.902 34.2544C276.015 34.0324 275.116 33.7074 274.209 33.2744C273.158 31.6377 272.751 29.923 273.238 28.1003V28.1003Z" fill="#2F2E41"/>
<path d="M319.652 286.453C320.541 286.517 321.033 285.251 320.36 284.513L320.293 284.209C320.302 284.184 320.311 284.16 320.32 284.135C321.219 281.679 324.266 281.696 325.157 284.156C325.948 286.34 326.955 288.527 327.203 290.836C327.314 291.855 327.264 292.893 327.067 293.893C328.921 289.253 329.896 284.185 329.896 279.09C329.896 277.809 329.835 276.529 329.71 275.252C329.607 274.207 329.466 273.169 329.282 272.14C328.29 266.579 326.142 261.283 323.043 256.859C321.553 255.926 320.311 254.467 319.56 252.718C319.291 252.088 319.08 251.409 318.979 250.718C319.149 250.744 319.619 247.785 319.491 247.603C319.727 247.193 320.15 246.988 320.408 246.587C321.691 244.594 323.459 244.942 324.382 247.651C326.354 248.792 326.373 250.683 325.163 252.502C324.394 253.659 324.288 255.225 323.613 256.464C323.682 256.566 323.754 256.665 323.824 256.766C325.098 258.639 326.2 260.652 327.129 262.767C326.866 260.417 327.254 257.585 327.915 255.76C328.667 253.68 330.077 251.929 331.319 250.131C332.81 247.972 335.868 248.914 336.131 251.652C336.134 251.678 336.136 251.705 336.139 251.731C335.954 251.85 335.774 251.977 335.597 252.111C334.59 252.874 334.938 254.662 336.131 254.873L336.158 254.878C336.091 255.639 335.977 256.394 335.811 257.136C337.404 264.195 333.965 266.766 329.054 266.882C328.946 266.945 328.84 267.009 328.732 267.07C329.229 268.675 329.627 270.321 329.921 271.99C330.185 273.465 330.369 274.956 330.472 276.452C330.6 278.341 330.588 280.239 330.449 282.125L330.458 282.058C330.811 279.981 331.795 278.042 333.223 276.698C335.351 274.694 338.358 273.957 340.654 272.346C341.759 271.571 343.175 272.573 342.982 274.041L342.973 274.112C342.631 274.271 342.297 274.456 341.975 274.663C341.791 274.782 341.61 274.908 341.433 275.042C340.427 275.805 340.775 277.593 341.968 277.804L341.995 277.809C342.014 277.812 342.031 277.816 342.05 277.819C341.464 279.414 340.647 280.895 339.624 282.173C338.628 288.335 334.35 288.92 329.774 287.125H329.771C329.271 289.622 328.54 292.062 327.601 294.387H319.847C319.819 294.288 319.794 294.186 319.769 294.087C320.486 294.138 321.208 294.091 321.914 293.941C321.339 293.132 320.764 292.317 320.188 291.508C320.175 291.492 320.163 291.476 320.152 291.46C319.861 291.046 319.566 290.635 319.274 290.221L319.274 290.22C319.256 288.949 319.389 287.683 319.652 286.453L319.652 286.453V286.453Z" fill="#F2F2F2"/>
<path d="M232.924 294.413C232.924 294.739 233.153 295 233.437 295H342.428C342.712 295 342.94 294.739 342.94 294.413C342.94 294.088 342.712 293.826 342.428 293.826H233.437C233.153 293.826 232.924 294.088 232.924 294.413Z" fill="#CCCCCC"/>
<path d="M178.156 69.3884H163.646C162.745 69.3884 162.012 68.5485 162.012 67.5161C160.093 61.0901 160.131 54.7934 162.012 48.6187C162.012 47.5862 162.745 46.7463 163.646 46.7463H178.156C179.057 46.7463 179.79 47.5862 179.79 48.6187V67.5161C179.79 68.5485 179.057 69.3884 178.156 69.3884Z" fill="#E6E6E6"/>
<path d="M166.755 47.3042C164.404 47.3042 162.499 49.4878 162.499 52.1814V67.1152C162.499 68.0626 163.169 68.8306 163.996 68.8306H172.02C176.042 68.8306 179.303 65.0938 179.303 60.4842V49.0196C179.303 48.0722 178.633 47.3042 177.806 47.3042H166.755V47.3042Z" fill="white"/>
<path d="M174.28 52.7959H167.487C167.315 52.7959 167.176 52.6362 167.176 52.4399C167.176 52.2436 167.315 52.084 167.487 52.084H174.28C174.452 52.084 174.591 52.2436 174.591 52.4399C174.591 52.6362 174.452 52.7959 174.28 52.7959Z" fill="#E6E6E6"/>
<path d="M174.28 60.3861H167.487C167.315 60.3861 167.176 60.2264 167.176 60.0301C167.176 59.8338 167.315 59.6742 167.487 59.6742H174.28C174.452 59.6742 174.591 59.8339 174.591 60.0301C174.591 60.2264 174.452 60.3861 174.28 60.3861Z" fill="#E6E6E6"/>
<path d="M177.926 56.5935H163.841C163.67 56.5935 163.531 56.4338 163.531 56.2375C163.531 56.0412 163.67 55.8816 163.841 55.8816H177.926C178.097 55.8816 178.236 56.0412 178.236 56.2375C178.236 56.4338 178.097 56.5935 177.926 56.5935Z" fill="#E6E6E6"/>
<path d="M178.092 63.4723H172.215C172.044 63.4723 171.904 63.3126 171.904 63.1163C171.904 62.92 172.044 62.7604 172.215 62.7604H178.092C178.263 62.7604 178.402 62.92 178.402 63.1163C178.402 63.3126 178.263 63.4723 178.092 63.4723Z" fill="#E6E6E6"/>
</svg>

